{"title":"Ghostbusters.2016.TS.XviD-BiGDADDYVAiN [WeLoveTorrents]","uid":15372990,"size":1199476248,"categoryP":"video","categoryS":"movies","magnet":"?xt=urn:btih:c175f6ddad25392966c8cbef051ca0549179f597&amp;dn=Ghostbusters.2016.TS.XviD-BiGDADDYVAiN+%5BWeLoveTorrents%5D&amp;tr=udp%3A%2F%2Ftracker.leechers-paradise.org%3A6969&amp;tr=udp%3A%2F%2Fzer0day.ch%3A1337&amp;tr=udp%3A%2F%2Fopen.demonii.com%3A1337&amp;tr=udp%3A%2F%2Ftracker.coppersurfer.tk%3A6969&amp;tr=udp%3A%2F%2Fexodus.desync.com%3A6969","seeders":11,"leechers":4,"uploader":"0-DayXXX","files":4,"time":1469164474,"description":"....... : Screenshots/ Info : .......    \r\n-------------------------------------------------------------            \nhttp://welovetorrents.com/topic/120-ghostbusters2016tsxvid-bigdaddyvain-welovetorrents/\r\n\r\nP R E S E N T S . . . . \r\nGhostbusters.2016.TS.XviD-BiGDADDYVAiN\r\niMDB........: http://www.imdb.com/title/tt1289401/\r\n\r\nT E C H N i C A L . i N F O . . .\r\nBasic Information\r\nFormat                      : AVI\r\nFormat/Info                 : Audio Video Interleave\r\nFile size                   : 1.10 GiB\r\nDuration                    : 1 h 55 min\r\nOverall bit rate            : 1 366 kb/s\r\nWriting application         : VirtualDubMod 1.5.10.2 (build 2540/release)\r\nWriting library             : VirtualDubMod build 2540/release\r\n\r\nVideo\r\nID                          : 0\r\nFormat                      : MPEG-4 Visual\r\nFormat profile              : Advanced   \r\nFormat settings, BVOP       : 2\r\nFormat settings, QPel       : No\r\nFormat settings, GMC        : No warppoints\r\nFormat settings, Matrix     : Default (H.263)\r\nMuxing mode                 : Packed bitstream\r\nCodec ID                    : XVID\r\nCodec ID/Hint               : XviD\r\nDuration                    : 1 h 55 min\r\nBit rate                    : 1 163 kb/s\r\nWidth                       : 736 pixels\r\nHeight                      : 352 pixels\r\nDisplay aspect ratio        : 2.091\r\nFrame rate                  : 29.970 (30000/1001) FPS\r\nColor space                 : YUV\r\nChroma subsampling          : 4:2:0\r\nBit depth                   : 8 bits\r\nScan type                   : Progressive\r\nCompression mode            : Lossy\r\nBits/(Pixel*Frame)          : 0.150\r\nStream size                 : 960 MiB (85%)\r\nWriting library             : XviD 67\r\n\r\nAudio\r\nID                          : 1\r\nFormat                      : MPEG Audio\r\nFormat version              : Version 1\r\nFormat profile              : Layer 3\r\nMode                        : Joint stereo\r\nMode extension              : MS Stereo\r\nCodec ID                    : 55\r\nCodec ID/Hint               : MP3\r\nDuration                    : 1 h 55 min\r\nBit rate mode               : Constant\r\nBit rate                    : 192 kb/s\r\nChannel(s)                  : 2 channels\r\nSampling rate               : 48.0 kHz\r\nCompression mode            : Lossy\r\nStream size                 : 159 MiB (14%)\r\nAlignment                   : Aligned on interleaves\r\nInterleave, duration        : 33  ms (1.00 video frame)\r\nInterleave, preload duratio : 504  ms\r\n\r\nE N C O D E R S . N O T E S . . .  \r\nSOURCE......: ViDEO...DADDY\r\n............: AUDiO...DADDY\r\nSAMPLE......: Yippers\r\n-------------------------------------------------------------\r\n    ★★★ My Torrents Source  http://thepornbook.org ★★★","torrent":{"xt":"urn:btih:c175f6ddad25392966c8cbef051ca0549179f597","amp;dn":"Ghostbusters.2016.TS.XviD-BiGDADDYVAiN+%5BWeLoveTorrents%5D","amp;tr":["udp%3A%2F%2Ftracker.leechers-paradise.org%3A6969","udp%3A%2F%2Fzer0day.ch%3A1337","udp%3A%2F%2Fopen.demonii.com%3A1337","udp%3A%2F%2Ftracker.coppersurfer.tk%3A6969","udp%3A%2F%2Fexodus.desync.com%3A6969"],"infoHash":"c175f6ddad25392966c8cbef051ca0549179f597","infoHashBuffer":{"type":"Buffer","data":[193,117,246,221,173,37,57,41,102,200,203,239,5,28,160,84,145,121,245,151]},"announce":[],"urlList":[]}}